<?xml version="1.0" encoding="utf-8"?>
<!-- Generator: Adobe Illustrator 21.0.0, SVG Export Plug-In . SVG Version: 6.00 Build 0)  -->
<svg version="1.1" id="Layer_1" xmlns="http://www.w3.org/2000/svg" xmlns:xlink="http://www.w3.org/1999/xlink" x="0px" y="0px"
	 viewBox="0 0 300 300" style="enable-background:new 0 0 300 300;" xml:space="preserve">
<style type="text/css">
	.st0{fill:#FFFFFF;stroke:#FFFFFF;stroke-miterlimit:10;}
</style>
<g>
	<g>
		<path class="st0" d="M150,0C67.2,0,0,67.2,0,150c0,82.8,67.2,150,150,150s150-67.2,150-150C300,67.2,232.8,0,150,0z M189.2,218.2
			c-2.7,2.7-6.3,4.1-9.9,4.1c-3.6,0-7.2-1.4-9.9-4.1l-56.3-56.3c-0.8-0.5-1.6-1.2-2.4-1.9c-2.8-2.8-4.1-6.5-4.1-10.1
			c-0.1-3.7,1.3-7.4,4.1-10.1c0.7-0.7,1.5-1.3,2.4-1.9l56-56c5.5-5.5,14.3-5.5,19.8,0c5.5,5.5,5.5,14.3,0,19.8l-48.3,48.3l48.5,48.5
			C194.7,203.9,194.7,212.7,189.2,218.2z"/>
	</g>
</g>
</svg>
